PathFileType	4	(X/Y/Z)	Gait_media_markers.trc
DataRate	CameraRate	NumFrames	NumMarkers	Units	OrigDataRate	OrigDataStartFrame	OrigNumFrames
100	100	10	38	m	100	58	92
Frame#	Time	RASI			RPSI			LPSI			LASI			RTROCH			RTHI			RTHI2			RTHI3			RTHI4			RKNE			RKNEM			RTIB			RTIB2			RTIB3			RTIB4			RANK			RANKM			RHEE			RTOE			RTOEL			RTOEM			LTROCH			LTHI			LTHI2			LTHI3			LTHI4			LKNE			LKNEM			LTIB			LTIB2			LTIB3			LTIB4			LANK			LANKM			LHEE			LTOE			LTOEL			LTOEM
		X1	Y1	Z1	X2	Y2	Z2	X3	Y3	Z3	X4	Y4	Z4	X5	Y5	Z5	X6	Y6	Z6	X7	Y7	Z7	X8	Y8	Z8	X9	Y9	Z9	X10	Y10	Z10	X11	Y11	Z11	X12	Y12	Z12	X13	Y13	Z13	X14	Y14	Z14	X15	Y15	Z15	X16	Y16	Z16	X17	Y17	Z17	X18	Y18	Z18	X19	Y19	Z19	X20	Y20	Z20	X21	Y21	Z21	X22	Y22	Z22	X23	Y23	Z23	X24	Y24	Z24	X25	Y25	Z25	X26	Y26	Z26	X27	Y27	Z27	X28	Y28	Z28	X29	Y29	Z29	X30	Y30	Z30	X31	Y31	Z31	X32	Y32	Z32	X33	Y33	Z33	X34	Y34	Z34	X35	Y35	Z35	X36	Y36	Z36	X37	Y37	Z37	X38	Y38	Z38

58	0.570000	-0.319953	0.970161	-0.158692	-0.248224	1.006999	-0.335819	-0.152890	0.995370	-0.322449	-0.096719	0.969360	-0.134192	-0.382426	0.896790	-0.211736	-0.389577	0.772591	-0.168324	-0.374416	0.799321	-0.109869	-0.365122	0.726873	-0.070713	-0.379621	0.696846	-0.125806	-0.354571	0.562242	-0.065972	-0.242982	0.561784	-0.080754	-0.386922	0.428340	-0.082545	-0.354713	0.425788	-0.026231	-0.357253	0.337644	-0.026383	-0.390968	0.346129	-0.084605	-0.359469	0.123199	-0.095246	-0.285220	0.128946	-0.063805	-0.320716	0.061227	-0.148187	-0.343374	0.086609	0.085949	-0.400425	0.057470	0.037468	-0.293006	0.054498	0.070782	-0.043400	0.897973	-0.209527	-0.051331	0.688776	-0.198758	-0.079009	0.683238	-0.144721	-0.095054	0.603700	-0.163146	-0.066637	0.604860	-0.219977	-0.089277	0.520994	-0.219438	-0.195887	0.544901	-0.245056	-0.070666	0.304538	-0.289293	-0.112886	0.301335	-0.240278	-0.120884	0.217146	-0.265734	-0.080171	0.225453	-0.312526	-0.107855	0.098754	-0.346333	-0.190545	0.120534	-0.340389	-0.140863	0.057913	-0.418979	-0.158417	0.056873	-0.180418	-0.098167	0.044137	-0.219780	-0.208576	0.049364	-0.210029
59	0.580000	-0.319995	0.968358	-0.147627	-0.249003	1.005480	-0.325086	-0.153698	0.994038	-0.312434	-0.096169	0.967707	-0.124192	-0.382990	0.895232	-0.201405	-0.390455	0.771826	-0.158307	-0.378410	0.801458	-0.105139	-0.364688	0.725189	-0.060445	-0.380076	0.695042	-0.115617	-0.354020	0.560596	-0.055184	-0.242948	0.558741	-0.074282	-0.387043	0.426257	-0.066361	-0.353269	0.426814	-0.010239	-0.356026	0.338824	-0.005153	-0.391127	0.344038	-0.062840	-0.359372	0.120238	-0.061034	-0.285130	0.127855	-0.031779	-0.322286	0.055793	-0.111639	-0.338547	0.093404	0.121579	-0.397089	0.061001	0.076249	-0.289080	0.060287	0.106454	-0.043637	0.896654	-0.200258	-0.050618	0.687623	-0.192516	-0.079617	0.682032	-0.138367	-0.094741	0.602429	-0.157606	-0.066507	0.604292	-0.214679	-0.088557	0.520147	-0.214950	-0.195459	0.544186	-0.240026	-0.070635	0.304296	-0.287113	-0.112595	0.300538	-0.238102	-0.120800	0.216938	-0.264438	-0.080182	0.225415	-0.311082	-0.107983	0.099020	-0.345936	-0.189960	0.120281	-0.338867	-0.141802	0.058927	-0.419657	-0.158144	0.056780	-0.180285	-0.098164	0.044121	-0.219794	-0.208575	0.049338	-0.209922
60	0.590000	-0.320345	0.966935	-0.136568	-0.250115	1.003990	-0.314678	-0.154467	0.992662	-0.302294	-0.096217	0.966207	-0.113900	-0.383351	0.893609	-0.190464	-0.391246	0.769698	-0.146785	-0.373834	0.795579	-0.088781	-0.364350	0.722727	-0.050548	-0.380552	0.692970	-0.105392	-0.353147	0.558816	-0.045293	-0.242694	0.554703	-0.066673	-0.387041	0.424078	-0.049877	-0.352242	0.427878	0.005042	-0.354864	0.340118	0.015374	-0.391061	0.342109	-0.041873	-0.359974	0.118544	-0.027900	-0.284596	0.127951	-0.000217	-0.324466	0.054585	-0.078791	-0.334296	0.101404	0.155687	-0.393317	0.065582	0.113917	-0.284344	0.068026	0.140832	-0.043854	0.895224	-0.190957	-0.050360	0.686501	-0.185989	-0.079412	0.680453	-0.131961	-0.094646	0.601015	-0.152089	-0.066297	0.603387	-0.208950	-0.090325	0.517766	-0.210463	-0.195249	0.543676	-0.234864	-0.070689	0.304656	-0.284926	-0.112275	0.300531	-0.235936	-0.120588	0.216931	-0.263076	-0.080160	0.225517	-0.309620	-0.108067	0.099254	-0.345493	-0.190207	0.120536	-0.338371	-0.141507	0.058668	-0.419241	-0.158678	0.056004	-0.180154	-0.098146	0.044152	-0.219734	-0.208554	0.049287	-0.209775
61	0.600000	-0.320585	0.965016	-0.125312	-0.250991	1.002240	-0.303656	-0.155455	0.991105	-0.292136	-0.096414	0.964810	-0.103422	-0.383829	0.891598	-0.179378	-0.393690	0.770270	-0.139594	-0.373705	0.793109	-0.078565	-0.364128	0.719977	-0.040434	-0.381202	0.690568	-0.095174	-0.353542	0.555418	-0.036354	-0.242405	0.550995	-0.060415	-0.387578	0.422080	-0.035500	-0.351327	0.428490	0.019317	-0.354057	0.341504	0.034285	-0.391620	0.340663	-0.022455	-0.359927	0.117525	0.004267	-0.284167	0.129228	0.030066	-0.324921	0.051266	-0.043491	-0.329973	0.110543	0.188090	-0.389396	0.071522	0.149779	-0.279771	0.077022	0.173559	-0.044068	0.893799	-0.181519	-0.050029	0.685361	-0.179248	-0.078983	0.678855	-0.125289	-0.094453	0.599571	-0.146512	-0.066117	0.602670	-0.203285	-0.087800	0.518686	-0.206694	-0.194315	0.542576	-0.229119	-0.070486	0.304231	-0.282797	-0.112051	0.299357	-0.233466	-0.120381	0.216189	-0.261392	-0.080225	0.225780	-0.308184	-0.108266	0.099700	-0.345148	-0.190537	0.120908	-0.337887	-0.142112	0.059091	-0.419216	-0.158657	0.055926	-0.180109	-0.098422	0.043917	-0.219694	-0.208492	0.049194	-0.209628
62	0.610000	-0.320914	0.963102	-0.113869	-0.252139	1.000389	-0.292718	-0.156519	0.989462	-0.281768	-0.096541	0.962447	-0.094536	-0.384107	0.889382	-0.167873	-0.394982	0.768198	-0.128852	-0.373680	0.790442	-0.067973	-0.364336	0.716948	-0.030459	-0.382388	0.687993	-0.085101	-0.353443	0.552933	-0.027178	-0.242108	0.547017	-0.053876	-0.387659	0.420114	-0.020940	-0.351016	0.429245	0.032348	-0.353725	0.343135	0.051908	-0.391989	0.339351	-0.004088	-0.359489	0.117648	0.035401	-0.283392	0.131253	0.059009	-0.325066	0.049210	-0.009109	-0.325707	0.120898	0.218600	-0.385004	0.079428	0.184291	-0.275301	0.087020	0.204865	-0.044346	0.892240	-0.172128	-0.049791	0.684149	-0.172491	-0.078595	0.677121	-0.118589	-0.093904	0.598011	-0.140527	-0.066036	0.601667	-0.197386	-0.089331	0.516149	-0.201096	-0.194552	0.542019	-0.223736	-0.070476	0.304175	-0.280538	-0.111825	0.298771	-0.231075	-0.120311	0.215991	-0.259875	-0.080238	0.225760	-0.306589	-0.108533	0.100222	-0.344843	-0.190794	0.121255	-0.337348	-0.142296	0.058773	-0.418588	-0.158504	0.055744	-0.179907	-0.098479	0.043942	-0.219691	-0.208372	0.049203	-0.209394
63	0.620000	-0.321242	0.960837	-0.102276	-0.253366	0.998461	-0.281674	-0.157564	0.987628	-0.271178	-0.096887	0.960632	-0.084682	-0.384440	0.886989	-0.156414	-0.396473	0.765957	-0.118283	-0.373823	0.787476	-0.057557	-0.364796	0.713744	-0.020560	-0.384061	0.685165	-0.075275	-0.354004	0.550001	-0.017288	-0.242377	0.542939	-0.047001	-0.388014	0.418140	-0.008255	-0.351234	0.429822	0.044704	-0.353826	0.345093	0.068706	-0.392203	0.338508	0.012696	-0.357926	0.118622	0.065226	-0.282377	0.133701	0.086617	-0.324758	0.048394	0.023819	-0.321088	0.131660	0.247359	-0.380833	0.088179	0.216079	-0.270012	0.097490	0.234218	-0.044415	0.890801	-0.162829	-0.049578	0.682889	-0.165646	-0.078307	0.675148	-0.111665	-0.093741	0.596456	-0.134451	-0.066001	0.600579	-0.191350	-0.089497	0.515117	-0.196158	-0.194415	0.541067	-0.217757	-0.070640	0.303872	-0.277919	-0.111747	0.298329	-0.228615	-0.120248	0.215387	-0.258163	-0.080486	0.225998	-0.304962	-0.108806	0.100699	-0.344355	-0.191035	0.121532	-0.336596	-0.142598	0.058528	-0.417866	-0.158440	0.055620	-0.179811	-0.098856	0.044043	-0.219632	-0.208115	0.049339	-0.209016
64	0.630000	-0.321485	0.959322	-0.089412	-0.254766	0.996469	-0.270533	-0.158921	0.985851	-0.260836	-0.096545	0.958295	-0.074476	-0.384689	0.884393	-0.144817	-0.398071	0.763807	-0.107973	-0.374051	0.784256	-0.047328	-0.365465	0.709678	-0.011822	-0.387810	0.683116	-0.066796	-0.355076	0.547070	-0.008478	-0.243557	0.539788	-0.039995	-0.388758	0.415583	0.003898	-0.351848	0.430510	0.056335	-0.353980	0.345961	0.083613	-0.391950	0.337287	0.029042	-0.356869	0.120686	0.092655	-0.281003	0.137013	0.112774	-0.323338	0.048598	0.054862	-0.316880	0.142374	0.273916	-0.377233	0.097257	0.246202	-0.266017	0.109018	0.262017	-0.044697	0.889262	-0.153535	-0.050276	0.681410	-0.157980	-0.077633	0.673404	-0.104687	-0.093380	0.594759	-0.128055	-0.065984	0.599518	-0.185150	-0.089216	0.514234	-0.190783	-0.194466	0.540094	-0.211447	-0.070965	0.303728	-0.275138	-0.111808	0.297720	-0.225738	-0.120324	0.215475	-0.256373	-0.080810	0.226225	-0.303183	-0.109254	0.101334	-0.343912	-0.190898	0.121425	-0.334945	-0.143220	0.059904	-0.418873	-0.158355	0.055424	-0.179680	-0.098976	0.044066	-0.219595	-0.208241	0.049307	-0.208878
65	0.640000	-0.321540	0.956003	-0.078833	-0.256192	0.994411	-0.259317	-0.160234	0.984083	-0.250272	-0.096540	0.956255	-0.064251	-0.385072	0.881916	-0.133220	-0.399594	0.761448	-0.098000	-0.374681	0.781092	-0.037379	-0.366474	0.705733	-0.003526	-0.390957	0.682030	-0.060716	-0.356434	0.544113	-0.000198	-0.245163	0.536734	-0.031271	-0.389245	0.413232	0.015885	-0.352766	0.430752	0.067532	-0.354403	0.347751	0.098496	-0.392122	0.336382	0.043797	-0.354471	0.122325	0.117853	-0.279241	0.140595	0.137532	-0.318856	0.046544	0.087036	-0.314643	0.152413	0.298038	-0.373697	0.104912	0.272782	-0.262779	0.119446	0.287421	-0.044993	0.887639	-0.144117	-0.050022	0.679868	-0.151111	-0.077416	0.671378	-0.097322	-0.093228	0.593213	-0.121641	-0.066206	0.598191	-0.178581	-0.089320	0.513115	-0.185269	-0.194613	0.539104	-0.204731	-0.071354	0.304111	-0.272231	-0.111958	0.296495	-0.222777	-0.120614	0.214832	-0.254482	-0.081174	0.226741	-0.301392	-0.109792	0.101984	-0.343351	-0.191998	0.122731	-0.334935	-0.143783	0.060413	-0.418561	-0.158439	0.055181	-0.179508	-0.098848	0.044124	-0.219487	-0.208252	0.049149	-0.208621
66	0.650000	-0.321710	0.953464	-0.067149	-0.257793	0.992477	-0.248226	-0.161749	0.982303	-0.239816	-0.096435	0.953843	-0.054125	-0.385601	0.879354	-0.121775	-0.400418	0.758254	-0.087510	-0.375949	0.778724	-0.028042	-0.367724	0.702387	0.005575	-0.390805	0.677396	-0.049107	-0.357903	0.541312	0.009194	-0.246400	0.534510	-0.021427	-0.390049	0.410930	0.027914	-0.354030	0.430466	0.078441	-0.354985	0.348664	0.112585	-0.391627	0.334810	0.058214	-0.350992	0.123429	0.140772	-0.277028	0.144900	0.160673	-0.314009	0.047559	0.113188	-0.313731	0.160999	0.320107	-0.371297	0.110628	0.296474	-0.260742	0.129468	0.310537	-0.045202	0.885956	-0.134674	-0.050098	0.678522	-0.143703	-0.076663	0.669188	-0.090020	-0.093186	0.591470	-0.114801	-0.066652	0.597107	-0.171898	-0.089883	0.511867	-0.179479	-0.195020	0.538094	-0.197872	-0.071836	0.303708	-0.269260	-0.112247	0.295678	-0.219648	-0.120913	0.215065	-0.252505	-0.081856	0.227157	-0.299360	-0.110268	0.103097	-0.342837	-0.192433	0.123302	-0.333742	-0.144380	0.060927	-0.418252	-0.158540	0.055022	-0.179438	-0.099048	0.044222	-0.219428	-0.208231	0.048982	-0.208357
67	0.660000	-0.321916	0.950996	-0.055457	-0.259056	0.990477	-0.237013	-0.163059	0.980505	-0.229247	-0.096292	0.951651	-0.043663	-0.386261	0.877000	-0.110447	-0.401302	0.756206	-0.078249	-0.376941	0.775963	-0.018248	-0.368522	0.699481	0.015000	-0.392503	0.676492	-0.042761	-0.359321	0.538918	0.018031	-0.246975	0.532347	-0.009799	-0.389756	0.408550	0.038771	-0.355909	0.430240	0.089570	-0.355865	0.349093	0.125963	-0.391179	0.333395	0.070445	-0.348075	0.123875	0.160591	-0.275437	0.148693	0.181270	-0.308274	0.048838	0.136023	-0.314386	0.167266	0.339867	-0.369805	0.114061	0.317044	-0.260057	0.138104	0.331367	-0.045615	0.884366	-0.125060	-0.050132	0.676819	-0.135964	-0.076564	0.667368	-0.082515	-0.093368	0.589762	-0.107642	-0.067257	0.595989	-0.165034	-0.090441	0.510755	-0.173510	-0.195569	0.537259	-0.190828	-0.072464	0.304027	-0.266197	-0.112493	0.295547	-0.216541	-0.121222	0.214555	-0.250311	-0.082452	0.227522	-0.297101	-0.110658	0.104205	-0.342111	-0.193116	0.124015	-0.332647	-0.145604	0.062247	-0.418168	-0.158629	0.054779	-0.179317	-0.099238	0.044282	-0.219336	-0.208109	0.048745	-0.207911
